<svg xmlns="http://www.w3.org/2000/svg" width="246" height="246" fill="none"><path fill="#00DBFF" d="M229.858 156.36c-.51-6.007.817-12.733-.053-18.556-.896-6.015-8.241-10.207-12.687-13.469-4.331-3.175-4.357-6.507-6.334-11.225-2.056-4.911-7.898-9.023-13.346-8.506-4.094.386-8.038-1.491-11.658-3.227-6.879-3.297-14.049-5.945-20.945-9.216-5.922-2.798-11.43-4.262-17.414-.132-4.243 2.929-8.443 6.62-13.609 7.866-5.166 1.245-5.543-4.28-3.883-7.883 2.434-5.28 7.477-9.147 9.251-14.654 1.898-5.902.572-12.742-1.124-18.538-1.01-3.455-3.11-6.428-4.885-9.515-1.397-2.429-1.986-5.805-3.62-7.936-1.977-2.578-4.876-4.148-7.968-5.007-3.4-.947-4.402.123-7.459.824-5.492 1.245-7.89-4.384-9.735-8.462-3.277-7.235-9.55-6.41-15.867-4.025-7.362 2.78-14.54 6.068-22.096 8.33-10.86 3.245-19.742 10.91-27.552 18.81C13.299 77.71 13 127.046 13 127.545v.158l.44 13.365v12.426c0 1.482 0 2.972-.01 4.454-.026 1.938.176 3.622.352 5.122.123 1.043.228 1.946.228 2.648l-.026 2.788c-.062 6.078-.132 12.365.589 18.758.21 1.833.175 3.937.131 6.156a104.343 104.343 0 0 0-.017 4.078 53.602 53.602 0 0 1-.053 3.078c-.044 1.078-.088 2.192-.026 3.516.061 1.307.009 2.999-.035 4.639-.027.824-.044 1.631-.053 2.359v.166c-.562 7.954 5.42 10.629 7.266 11.26 1.115.386 2.284.57 3.55.57.526 0 .992-.035 1.37-.061.483.044.931.052 1.326.052h.273c1.168.149 2.425.228 3.813.228 1.388 0 2.662-.07 3.822-.131a50.84 50.84 0 0 1 2.618-.097c3.883 0 7.766-.008 11.65-.017 3.777-.009 7.555-.018 11.272-.018.149 0 .518.009 1.036.027 2.162.052 6.651.149 10.552.149 2.126 0 3.769-.027 5.017-.088 7.749-.386 10.2-4.551 10.885-7.98 1.845-9.225.193-20.125-4.314-28.439-1.968-3.639-4.586-6.98-7.977-9.4-2.9-2.07-8.426-2.28-9.005-6.174-.686-4.639 3.97-4.525 7.02-4.814 4.102-.386 7.581-1.587 9.716-5.419.22-.29.51-.684.817-1.176.246-.394.519-.771.791-1.157.343-.491.694-.982 1.02-1.491a47.191 47.191 0 0 0 1.633-2.718c.273-.474.536-.947.826-1.412 2.109-3.403 4.876-7.892 7.582-12.514 2.399-4.095 4.261-9.778 10.165-9.269 4.27.368 9.427 4.507 13.214 6.551 5.131 2.78 10.358 5.445 15.428 8.348 6.835 3.911 5.368 10.769 5.438 17.372l.237 21.256c.123 11.541-2.284 24.458 5.65 33.744 3.997 4.683 6.519 5.806 12.704 5.525 10.947-.509 21.911-.71 32.867-.815 10.244-.097 20.831 2.762 31.04.701 7.152-1.447 8.039-9.409 7.846-15.443-.273-8.523.281-17.74-.949-26.141-1.265-8.602-.106-17.205-.844-25.913l-.017.009Z" opacity=".37"/><path fill="#00DBFF" d="M112.716 45.166c2.275-.255 7.608-.062 9.207 2.026 2.68 3.498-.132 5.962-2.24 8.356 3.743-.552 8.065-.473 9.866 4.175 1.968 5.077-2.337 5.858-5.508 8.27 3.523-.22 7.081.718 7.292 5.383.255 5.63-11.668 7.06-15.252 7.174-2.039.061-3.787.868-5.869.938-1.573.052-2.776.316-4.323.868-2.222.798-4.243 1.894-6.37 2.929a224.548 224.548 0 0 1-12.053 5.402C81.5 93.168 75.78 95.905 69.77 99.368c-2.231 1.289-6.44 3.324-9.075 3.587-2.636.263-2.285-5.227-3.453-8.068-2.618-6.357-3.497-13.364-6.098-19.651-.667-1.614 12.836-6.656 14.11-7.27 2.17-1.052 4.13-1.342 6.414-1.912 2.759-.693 4.84-2.5 7.099-4.157 10.095-7.4 21.147-15.302 33.948-16.74v.009Z"/><path fill="#050505" d="M112.718 45.824c2.451-.255 5.517-.21 7.731 1.008 1.414.772 2.232 2.552 1.775 4.113-.457 1.56-1.907 2.903-2.996 4.148-.466.526 0 1.192.641 1.096 1.748-.246 3.602-.377 5.307.14 1.968.597 3.286 2.14 3.909 4.06.554 1.72.255 3.157-1.159 4.297-1.309 1.053-2.873 1.745-4.218 2.745-.474.35-.386 1.263.334 1.228 2.469-.132 5.395.28 6.317 2.955.782 2.28 0 4.051-1.977 5.297-3.426 2.148-8.003 2.77-11.983 2.981-1.538.08-2.979.447-4.481.737-1.766.342-3.532.272-5.271.798-3.805 1.157-7.328 3.28-10.921 4.946-7.327 3.393-14.865 6.26-22 10.067-3.127 1.666-6.123 3.586-9.444 4.867-.694.271-1.406.517-2.126.71-.51.14-1.344.447-1.872.272-.905-.307-1.115-1.815-1.282-2.605-.273-1.271-.422-2.578-.747-3.84-.413-1.588-1.142-3.087-1.643-4.648-1.195-3.718-2.02-7.542-3.137-11.278a69.854 69.854 0 0 0-.843-2.622c-.15-.43-.307-.859-.474-1.289-.062-.166-.334-1.087-.378-.868-.035.176.088-.061.22-.166.237-.193.474-.377.729-.553 1.651-1.087 3.496-1.894 5.297-2.692 1.801-.798 3.77-1.605 5.667-2.376 1.898-.772 3.655-1.57 5.614-2.044 1.731-.42 3.462-.745 5.06-1.57 1.6-.824 2.909-1.885 4.297-2.92 2.917-2.174 5.878-4.305 8.9-6.33 6.07-4.07 12.555-7.735 19.662-9.603a40.185 40.185 0 0 1 5.492-1.044c.834-.096.843-1.412 0-1.315-7.758.912-14.936 4.078-21.56 8.103-3.357 2.034-6.572 4.27-9.753 6.568-1.581 1.14-3.145 2.306-4.709 3.464-1.564 1.157-3.25 2.27-5.192 2.788-1.942.518-3.734.79-5.518 1.509-.685.271-1.344.596-2.03.877-1.888.771-3.777 1.534-5.648 2.34-2.03.878-4.103 1.764-5.983 2.939-.536.333-1.151.71-1.538 1.227-.597.816-.088 1.509.237 2.368 1.459 3.902 2.346 7.971 3.462 11.97.949 3.394 2.38 6.594 2.996 10.067.316 1.771.72 4.92 3.127 4.884 1.459-.026 2.996-.648 4.332-1.183a40.353 40.353 0 0 0 4.49-2.123c3.76-2.06 7.485-4.139 11.368-5.963 3.918-1.841 7.942-3.446 11.905-5.191 3.962-1.745 8.056-3.999 12.203-5.718.905-.377 1.836-.719 2.794-.955 1.089-.272 2.17-.281 3.286-.404 1.783-.193 3.479-.798 5.289-.885 4.243-.21 9.111-.869 12.774-3.166 1.626-1.026 2.97-2.552 2.952-4.56-.026-2.675-1.476-4.946-4.068-5.761-1.247-.395-2.591-.448-3.892-.378l.334 1.228c1.599-1.192 3.558-1.964 4.973-3.394 1.511-1.517 1.608-3.516.896-5.463-.773-2.104-2.223-3.78-4.366-4.542-2.144-.763-4.27-.561-6.37-.263l.641 1.096c1.257-1.42 2.785-2.859 3.339-4.727.518-1.762-.158-3.788-1.52-5.007-2.258-2.008-6.414-2.07-9.251-1.78-.835.087-.844 1.403 0 1.315v.018Z"/><path fill="#fff" d="M85.307 40.518c1.336-2.481 4.753-7.602 4.753-7.602l5.035-1.114s5.166 21.037 9.172 28.737c4.366 8.41 13.908 35.313 13.908 35.313s-1.564.64-4.323 2.131L85.307 40.518Z"/><path fill="#050505" d="M85.876 40.852c.8-1.464 1.696-2.876 2.592-4.28.422-.657.843-1.306 1.265-1.963.229-.351.703-.834.817-1.237.106-.377-.193.29-.28.167.017.017.395-.088.403-.088.554-.088 1.116-.245 1.66-.368l2.935-.65-.808-.455c.8 3.27 1.678 6.515 2.592 9.76 1.564 5.55 3.189 11.154 5.421 16.486.773 1.842 1.722 3.587 2.539 5.402 1.063 2.333 2.038 4.7 2.996 7.077 2.117 5.244 4.111 10.54 6.07 15.846a704.103 704.103 0 0 1 3.444 9.488l.457-.807c-1.537.632-3.022 1.412-4.48 2.201l.905.237c-3.225-6.49-6.44-12.97-9.665-19.459-5.122-10.321-10.253-20.643-15.375-30.964-1.168-2.35-2.328-4.691-3.496-7.042-.378-.754-1.512-.096-1.143.667 3.225 6.489 6.44 12.97 9.665 19.459l15.375 30.964c1.168 2.35 2.328 4.691 3.496 7.042.159.324.607.394.905.236a78.246 78.246 0 0 1 3.093-1.578c.272-.132.553-.254.826-.386.061-.026.421-.184.246-.105.307-.132.588-.439.457-.807a677.67 677.67 0 0 0-8.769-23.458 210.181 210.181 0 0 0-5.614-12.829c-2.407-5.042-3.953-10.55-5.5-15.899a306.471 306.471 0 0 1-3.198-11.856c-.087-.36-.474-.535-.808-.456l-3.03.667c-.739.166-1.89.175-2.408.771-.747.86-1.31 1.991-1.924 2.956-.975 1.517-1.95 3.043-2.803 4.621-.404.745.73 1.412 1.142.667v-.027Z"/><path fill="#fff" d="M90.225 39.431c1.336-2.482 4.753-7.603 4.753-7.603s.352.903 1.538 3.359c3.76 7.813 8.1 15.355 12.106 23.054 4.367 8.41 14.242 30.42 14.242 30.42s-2.478 3.771-4.656 7.033L90.225 39.431Z"/><path fill="#050505" d="M90.797 39.764c1.424-2.622 3.102-5.12 4.753-7.603l-1.203-.157c1.924 4.884 4.595 9.55 7.063 14.162 2.671 4.99 5.439 9.936 7.96 15.013 3.594 7.252 6.941 14.627 10.288 21.993.879 1.938 1.757 3.876 2.636 5.823v-.667c-1.546 2.35-3.101 4.692-4.656 7.033h1.142c-3.154-6.349-6.317-12.698-9.471-19.055-5.026-10.102-10.051-20.213-15.077-30.315l-3.426-6.893c-.378-.754-1.511-.096-1.142.666 3.154 6.35 6.317 12.698 9.47 19.056 5.026 10.102 10.052 20.213 15.077 30.315l3.427 6.893c.237.473.887.386 1.142 0 .931-1.395 1.862-2.798 2.785-4.192.58-.886 1.282-1.754 1.783-2.692.317-.605-.035-1.096-.298-1.666-1.38-3.07-2.777-6.139-4.182-9.208-4.209-9.19-8.523-18.31-13.32-27.21-2.029-3.763-4.067-7.516-6.018-11.313-1.362-2.648-2.811-5.314-3.9-8.085-.212-.526-.87-.658-1.204-.158-1.66 2.482-3.33 4.98-4.753 7.603-.404.745.729 1.412 1.142.666l-.018-.009Z"/><path fill="#00DBFF" d="M90.085 39.678c-.334.131-.668.28-1.02.386-.237.07-.483.149-.72.201-.21.044-.44.044-.65.097-.123.026-.264.044-.387.079-.202.052-.386.114-.597.149-.193.035-.395.052-.58.131"/><path fill="#050505" d="M89.908 39.046c-.334.132-.668.28-1.02.386-.166.053-.333.105-.5.15l-.22.052c-.079.017-.096.017-.044.008-.052 0-.096.01-.149.018-.36.044-.703.114-1.054.21-.317.088-.668.106-.975.22-.308.114-.58.447-.457.806.105.316.465.588.808.456.308-.113.659-.131.975-.219.15-.044.299-.079.457-.114.07-.017.132-.026.202-.044.08-.017.097-.017.044 0 .053 0 .097-.008.15-.017.737-.088 1.431-.368 2.126-.65.316-.13.58-.446.456-.806-.096-.307-.465-.596-.808-.456h.009Z"/><path fill="#00DBFF" d="M90.077 54.102c7.75-4.166 11.861-6.121 17.932-3.192 2.504 1.201 4.753 5.007 3.708 7.76-1.696 4.482-5.702 5.595-9.647 6.858-3.101 1-1.748.167-4.753 1.28"/><path fill="#050505" d="M90.41 54.672c2.89-1.552 5.842-3.254 9.04-4.087 2.706-.71 5.403-.42 7.933.755 2.531 1.175 4.692 4.375 3.699 7.155-1.054 2.938-3.734 4.525-6.528 5.525-1.432.517-2.917 1.07-4.419 1.368-1.037.21-1.986.42-2.996.789-.79.29-.448 1.561.352 1.272 1.036-.386 2.011-.588 3.075-.807 1.555-.333 3.11-.903 4.603-1.447 3.014-1.114 5.676-2.824 6.985-5.867 1.309-3.043-.29-6.331-2.653-8.217-2.364-1.885-5.676-2.499-8.514-2.148-4.024.5-7.74 2.701-11.245 4.586-.747.404-.08 1.535.667 1.14v-.017Z"/><path fill="#00DBFF" d="M57.691 136.068c0-10.751-.588-21.493 3.321-31.7.387-1.009.8-2 1.248-2.982.632-1.386 1.274-2.718 2.152-3.946.281-.395.501-.833.545-1.333.062-.623-.325-.561-.685-.956-.396-.43-.668-1.149-.87-1.71-.378-1.052-.694-2.324-.571-3.446.158-1.395.905-3.929 2.6-4.104.747-.08.879.368.993 1.043.132.772.176 1.509.492 2.236.167.386.378.72.492 1.114.053.193.167.368.299.509.334.35.685.763 1.072 1.06.492.378 1.16.544 1.766.667.659.132 1.397 0 1.941-.403.404-.298.782-.737.835-1.245.053-.544-.044-1.14-.343-1.605-.254-.403-.615-.728-.966-1.052-.114-.106-.281-.246-.325-.386.22-.21.325-.491.545-.684.43-.386.825-.807 1.238-1.21.589-.58 1.116-1.22 1.678-1.824.747-.798 1.59-1.553 2.416-2.254 1.01-.85 2.074-1.649 3.067-2.517.28-.245.483-.482.79-.701.308-.22.58-.413.853-.658.342-.307.817-.474.667-1.026a8.656 8.656 0 0 1-.246-1.263 4.756 4.756 0 0 0-.123-.614c-.298-1.078-.729-2.13-1.133-3.165-1.177-2.964-2.574-5.84-3.989-8.7-3.347-6.778-6.686-13.67-7.257-21.318-8.416 2.254-16.069 8.138-24.485 16.644-21.648 21.888-23.116 65.77-23.116 68.988l.44 13.364v11.172c0 1.991.008 3.982-.01 5.981-.026 2.613.598 5.104.58 7.726-.052 6.813-.254 13.671.51 20.406.413 3.683.114 7.436.176 11.154.053 2.982-.167 4.455-.08 6.305.115 2.385-.043 5.2-.078 7.629-.018 1.228-.334 1.816.79 2.201.484.167 1.837-.14 2.381-.008.43.096 1.459 0 1.907.079 2.926.464 6.405-.027 9.383-.027 7.661 0 15.322-.044 22.984-.044.817 0 17.896.509 18.037-.21 1.282-6.393.395-15.118-3.339-22.011-4.349-8.024-10.077-9.427-18.459-8.655-.826-17.416-.632-34.84-.632-52.291"/><path fill="#050505" d="M58.35 136.068c0-10.575-.545-21.449 3.294-31.525.932-2.447 2.065-4.692 3.436-6.92.377-.613.8-1.578.377-2.288-.149-.254-.404-.368-.614-.561-.493-.474-.712-1.193-.923-1.833-.597-1.824-.72-4.244.641-5.814.158-.184.756-.79 1.081-.587.228.149.272 1.464.316 1.692.185.947.598 2.105 1.178 2.885 1.22 1.666 3.777 2.85 5.675 1.561.79-.535 1.221-1.36 1.16-2.306-.088-1.412-1.028-1.807-1.73-2.877l-.106.798c2.231-2.7 4.84-5.156 7.564-7.357.642-.517 1.248-1.087 1.88-1.614.536-.456 1.283-.833 1.722-1.394.36-.473.273-.92.158-1.464-.166-.798-.28-1.579-.535-2.36-2.329-7.058-6.397-13.416-9.129-20.3-1.52-3.823-2.653-7.796-2.987-11.909-.035-.42-.395-.754-.835-.63-5.438 1.481-10.323 4.357-14.76 7.777-4.726 3.648-9.277 7.814-13.073 12.418-5.939 7.2-10.007 15.767-12.985 24.553-2.759 8.147-4.613 16.601-5.816 25.107-.72 5.077-1.265 10.207-1.423 15.337-.141 4.569.245 9.19.395 13.759l.026.675c.027.842 1.318.851 1.318 0v-.456c0-.85-1.318-.85-1.318 0v11.839c0 1.92-.009 3.841-.009 5.761 0 1.921.317 3.78.484 5.674.342 3.841.008 7.778.035 11.637.026 3.858.316 7.769.65 11.663.334 3.893.132 7.804.097 11.68-.027 2.912 0 5.823-.07 8.734-.036 1.579-.124 3.166-.15 4.745-.018.973.413 1.692 1.406 1.929.5.123 1.036.026 1.537-.009.545-.035 1.063.044 1.608.053 1.52.026 3.031.236 4.56.219 3.61-.035 7.213-.219 10.833-.228 3.97 0 7.95-.018 11.922-.026 3.97-.009 7.731.035 11.606.105 3.874.07 7.432.193 11.131-.035.931-.062 2.038.017 2.284-1.061.65-2.885.633-6.007.378-8.927-.536-6.06-2.451-12.461-6.448-17.162-3.163-3.727-7.6-5.235-12.397-5.296a38.315 38.315 0 0 0-4.024.184l.659.657c-.817-17.415-.633-34.857-.633-52.29 0-.851-1.318-.851-1.318 0 0 17.433-.184 34.875.633 52.29.018.334.29.693.659.658 4.595-.412 9.532-.324 13.337 2.64 4.524 3.525 6.782 9.681 7.784 15.135.553 3.008.72 6.095.457 9.147-.062.675-.14 1.35-.246 2.025-.01.079-.194.886-.167.904 0 0 .237-.404.28-.351-.043-.044-1.018.131-1.106.14-3.418.237-6.888.114-10.314.061-3.032-.052-6.063-.131-9.094-.122-3.76 0-7.52.017-11.272.026-3.751.009-7.16-.096-10.727.061-3.04.132-6 .132-9.032-.052-.457-.026-.887-.079-1.353-.044-.44.026-1.344.263-1.608-.21-.193-.351.027-1.298.035-1.684.018-.824.044-1.658.062-2.482.08-2.797-.018-5.586.07-8.375.114-3.463.132-6.971.062-10.444-.08-3.683-.615-7.348-.72-11.04-.106-3.692-.053-7.244-.018-10.865.035-3.622-.571-7.121-.554-10.707.018-3.587 0-7.288 0-10.936v-5.594c0-.851-1.318-.851-1.318 0v.456h1.318c-.15-4.534-.457-9.085-.439-13.619.018-4.279.492-8.585 1.01-12.829.976-8.007 2.54-15.97 4.824-23.712 2.61-8.822 6.202-17.486 11.527-25.045 3.567-5.069 8.082-9.454 12.8-13.461 4.99-4.244 10.578-7.963 16.966-9.708l-.835-.631c.553 6.814 3.19 13.11 6.141 19.196 1.617 3.332 3.312 6.62 4.736 10.04.659 1.579 1.397 3.21 1.678 4.903.052.298.29.876.158 1.148-.106.22-.668.544-.844.684-.632.483-1.212 1.018-1.818 1.526-2.961 2.473-5.87 4.999-8.338 7.98-.184.22-.272.535-.105.798.615.938 2.266 1.815 1.291 3.122-.975 1.307-2.846.43-3.707-.412-.861-.842-1.292-2.06-1.485-3.175-.132-.754-.114-1.806-.852-2.27-1.336-.834-2.803.64-3.356 1.727a7.456 7.456 0 0 0-.66 4.937c.203.964.51 2.017 1.01 2.876.177.307.414.535.642.807.167.193.238.131.29.368.08.36-.351.833-.544 1.114-1.353 2.026-2.329 4.288-3.216 6.551-1.854 4.726-2.776 9.742-3.19 14.784-.474 5.806-.298 11.646-.298 17.46 0 .851 1.318.851 1.318 0v-.009Z"/><path fill="#00DBFF" d="m155.777 214.492-4.376-5.06-.746-67.9 6.281 2.499.844 62.209"/><path fill="#050505" d="m156.242 214.027-2.477-2.859-1.468-1.701c-.087-.097-.254-.395-.386-.447-.229-.088.097.412.14.377.229-.167-.026-2.333-.026-2.605l-.158-14.785-.448-40.566-.106-9.918-.834.631c2.091.833 4.182 1.666 6.282 2.491l-.484-.632.29 20.976c.15 11.19.308 22.371.457 33.56l.106 7.673c.008.842 1.326.851 1.317 0l-.289-20.976c-.15-11.189-.308-22.37-.457-33.56l-.106-7.673c0-.315-.211-.526-.483-.631-2.091-.833-4.182-1.666-6.282-2.49-.404-.158-.834.245-.834.631.026 2.718.061 5.428.087 8.147l.211 18.836.238 21.528c.061 5.288.114 10.585.175 15.873.009 1.096-.061 2.236.035 3.332.044.473.282.737.589 1.087l3.189 3.692.791.921c.553.64 1.485-.289.931-.93v.018Z"/><path fill="#00DBFF" d="m210.681 212.518-4.376-5.068-1.045-67.217 7.134 2.438"/><path fill="#050505" d="M211.146 212.053c-.826-.956-1.652-1.912-2.478-2.859l-1.467-1.701c-.088-.096-.255-.395-.386-.447-.229-.088.096.412.14.377.22-.158-.035-2.28-.035-2.534l-.228-14.61c-.211-13.399-.413-26.799-.624-40.198a3599.77 3599.77 0 0 1-.149-9.857l-.835.632c2.381.815 4.753 1.622 7.134 2.438.808.271 1.151-1 .351-1.272-2.381-.816-4.753-1.622-7.134-2.438-.404-.14-.843.228-.834.632.14 8.953.281 17.906.413 26.851.193 12.312.386 24.615.571 36.927.017 1.088-.132 2.315.052 3.394.141.824 1.151 1.622 1.678 2.227.967 1.114 1.925 2.228 2.891 3.35.553.64 1.485-.289.931-.929l.009.017Z"/><path fill="#00DBFF" d="M174.024 189.525s-.027-55.422-.571-63.516c-.387-5.621 0-10.207-.765-16.24h-9.181l1.977 79.572 8.54.184Z"/><path fill="#050505" d="M174.683 189.525c0-7.647-.027-15.293-.053-22.931-.044-11.672-.07-23.344-.325-35.007-.035-1.754-.07-3.508-.176-5.262-.316-5.515-.105-11.058-.782-16.547-.044-.351-.263-.658-.659-.658h-9.181c-.351 0-.667.298-.659.658.062 2.639.132 5.288.194 7.927l.474 18.933c.193 7.673.378 15.337.571 23.01l.492 19.898c.053 2.175.106 4.358.167 6.533.026 1.035-.035 2.104.079 3.13v.132c.009.36.299.649.659.658l8.54.184c.852.017.852-1.298 0-1.316l-8.54-.184.659.658c-.062-2.64-.132-5.288-.193-7.927l-.475-18.933c-.193-7.673-.378-15.338-.571-23.011l-.492-19.897c-.053-2.175-.105-4.358-.167-6.533l-.052-2.043c0-.307.07-.789-.027-1.088-.009-.035 0-.096 0-.131l-.659.658h9.181l-.659-.658c.659 5.332.413 10.689.756 16.047.088 1.421.132 2.851.176 4.28.131 5.06.175 10.12.228 15.171.114 11.935.149 23.869.176 35.813 0 2.815.009 5.639.009 8.454 0 .85 1.317.85 1.317 0l-.008-.018Z"/><path fill="#00DBFF" d="M220.282 212.431c.07-10.102.246-48.81-.317-55.676-.395-4.77 0-8.655-.79-13.768h-9.454l1.336 69.786 9.225-.342Z"/><path fill="#050505" d="M220.94 212.43c.062-8.392.08-16.784.08-25.176 0-9.032.043-18.074-.238-27.106-.052-1.587-.167-3.174-.254-4.762-.238-4.209-.097-8.4-.721-12.575-.044-.28-.369-.482-.632-.482h-9.454c-.351 0-.668.298-.659.658l.448 23.685.712 37.48c.053 2.876.105 5.753.167 8.62 0 .342.299.676.659.658l9.225-.342c.843-.035.852-1.35 0-1.315l-9.225.342.659.657-.448-23.685-.712-37.48c-.053-2.876-.105-5.753-.167-8.62l-.659.657h9.454l-.633-.482c.562 3.806.466 7.629.633 11.462.07 1.56.21 3.104.263 4.665.141 3.727.167 7.462.202 11.189.088 10.006.07 20.003.044 30.009-.017 3.981-.035 7.962-.061 11.935 0 .85 1.309.85 1.317 0v.008Z"/><path fill="#00DBFF" d="M155.778 214.492c-.773-9.848-.035-60.184-.334-72.811l9.901.298-.474 72.293-9.093.211v.009Z"/><path fill="#050505" d="M156.437 214.491c-.255-3.271-.264-6.568-.299-9.848-.061-5.209-.07-10.417-.07-15.626 0-11.444.088-22.888.105-34.341 0-4.332.027-8.664-.079-12.996l-.659.658c3.304.096 6.598.202 9.902.298l-.659-.658-.158 24.405c-.088 12.979-.167 25.948-.255 38.927-.018 2.99-.035 5.98-.062 8.971l.659-.658-9.093.211c-.843.017-.852 1.332 0 1.315l9.093-.211a.662.662 0 0 0 .659-.657l.158-24.405c.088-12.978.167-25.948.255-38.927.018-2.99.035-5.98.062-8.971 0-.359-.308-.648-.659-.657-3.304-.097-6.598-.202-9.902-.298a.664.664 0 0 0-.659.657c.211 9.147.062 18.31.027 27.457-.044 11.259-.123 22.519-.009 33.779.035 3.85.017 7.726.316 11.566.062.842 1.38.842 1.318 0l.009.009Z"/><path fill="#00DBFF" d="m174.901 108.971 44.921 28.64-60.367.535c-7.995-4.56-35.687-18.679-50.131-27.176l65.577-2.008v.009Z"/><path fill="#050505" d="M174.568 109.541c5.061 3.227 10.113 6.445 15.173 9.672 8.066 5.139 16.122 10.278 24.187 15.425 1.854 1.184 3.708 2.359 5.553 3.543l.334-1.228c-4.235.035-8.461.079-12.696.114-8.539.079-17.079.149-25.628.228-6.624.062-13.257.114-19.882.176-.623 0-1.256-.018-1.889.017-.087 0-.193.018-.281 0 .484.097-.36-.298-.518-.386-.369-.21-.747-.412-1.116-.622-4.173-2.298-8.399-4.516-12.616-6.744-10.815-5.726-21.674-11.391-32.305-17.459a242.371 242.371 0 0 1-3.233-1.877l-.334 1.228c7.371-.228 14.751-.448 22.122-.676l35.372-1.078c2.697-.079 5.385-.167 8.082-.246.844-.026.853-1.341 0-1.315-7.371.228-14.751.447-22.122.675l-35.371 1.079c-2.698.079-5.386.166-8.083.245-.642.018-.905.886-.334 1.228 10.411 6.112 21.13 11.707 31.795 17.345 4.692 2.482 9.384 4.946 14.049 7.472.817.438 1.643.886 2.451 1.333.624.342 1.371.956 2.065 1.096.307.061.685 0 .992 0l17.809-.158c8.645-.079 17.29-.158 25.936-.228 3.426-.026 6.844-.061 10.27-.088 1.722-.017 3.488.079 5.21-.043h.237c.668 0 .879-.877.334-1.228-5.061-3.227-10.112-6.445-15.173-9.673a32534.96 32534.96 0 0 1-24.187-15.425c-1.854-1.184-3.708-2.359-5.553-3.542-.72-.456-1.379.684-.667 1.14h.017Z"/><path fill="#00DBFF" d="M109.324 120.809v-9.83l50.122 27.167v9.839l-50.122-27.176Z"/><path fill="#050505" d="M109.984 120.809v-9.83l-.993.57c5.632 3.051 11.272 6.112 16.904 9.164 8.996 4.875 17.984 9.751 26.981 14.627 2.082 1.131 4.155 2.253 6.238 3.385l-.326-.57v9.83l.993-.57-16.903-9.164c-8.997-4.876-17.985-9.751-26.981-14.627-2.083-1.131-4.156-2.254-6.238-3.385-.747-.403-1.415.728-.668 1.14 5.632 3.052 11.272 6.112 16.904 9.164 8.996 4.876 17.984 9.751 26.981 14.627 2.082 1.131 4.155 2.254 6.238 3.385.439.237.992-.062.992-.57v-9.83a.662.662 0 0 0-.325-.57c-5.631-3.052-11.272-6.113-16.903-9.164-8.997-4.876-17.985-9.752-26.981-14.627-2.083-1.132-4.156-2.254-6.238-3.385-.44-.237-.993.061-.993.57v9.83c0 .851 1.318.851 1.318 0Z"/><path fill="#00DBFF" d="M159.45 138.147v9.831s59.567-1.149 60.367-.535c.799.605 0-9.831 0-9.831l-60.367.535Z"/><path fill="#050505" d="M158.792 138.147v9.83c0 .351.298.666.658.658 8.971-.176 17.941-.325 26.902-.456 6.634-.097 13.267-.184 19.9-.237 4.191-.035 8.408-.149 12.599.053.211.008.43.035.641.043.018 0 .149-.008-.009-.026.492.061.809.167 1.09-.351.254-.464.228-1.14.246-1.648.096-2.789-.132-5.621-.343-8.401-.026-.351-.281-.658-.659-.658l-20.374.184-32.498.29c-2.504.026-4.999.043-7.503.07-.844 0-.853 1.324 0 1.315l20.374-.184 32.498-.289c2.504-.027 4.999-.044 7.503-.071l-.659-.657c.185 2.446.343 4.911.36 7.366 0 .57 0 1.149-.052 1.719 0 .044-.079.368-.071.386-.219-.316 1.239-.044.563-.299-.281-.105-.677-.087-.976-.105-3.918-.21-7.872-.088-11.79-.061-12.678.087-25.364.298-38.042.517-3.233.053-6.466.114-9.691.176l.659.657v-9.83c0-.851-1.318-.851-1.318 0l-.008.009Z"/><path fill="#00DBFF" d="M75.666 45.253a9.619 9.619 0 0 0-1.608-1.675c-.633-.508-1.178-1.113-1.89-1.56-.614-.386-.799-.281-1.405-.132-1.195.29-1.994.798-2.03 2.087-.026.886.018 1.771 0 2.657-.017.886-.105 1.763 0 2.683.212 1.798.8 3.534 1.398 5.236.93 2.657 1.51 5.437 2.512 8.076 1.002 2.64 2.285 5.121 3.567 7.638.756 1.49 1.617 2.938 2.645 4.28.755.99 1.713 2.14 3.004 2.49 1.292.35 2.671-.386 3.436-1.36.843-1.087.562-3.112.246-4.331-.343-1.298-.747-2.534-1.01-3.841-.704-3.482-2.153-6.779-3.014-10.225a30.773 30.773 0 0 0-3.734-8.726c-.712-1.14-1.335-2.262-2.126-3.288l.009-.009Z"/><path fill="#050505" d="M76.133 44.788c-.87-1.096-1.95-2.06-3.057-2.92-1.02-.79-1.81-.877-3.005-.456-2.54.886-1.933 3.438-2.003 5.612-.044 1.561.035 3 .421 4.525.404 1.605 1.028 3.14 1.511 4.718.932 3.017 1.714 6.033 3.005 8.927 1.292 2.894 2.654 5.805 4.384 8.427 1.239 1.868 3.031 4.482 5.623 4.122 2.592-.36 3.681-2.464 3.48-4.78-.097-1.14-.431-2.235-.739-3.331-.474-1.684-.79-3.412-1.291-5.087-.501-1.675-1.107-3.385-1.634-5.077-.563-1.789-.958-3.622-1.608-5.384-1.195-3.236-2.935-6.384-4.99-9.156-.501-.675-1.643-.017-1.143.667 1.555 2.078 2.926 4.429 4.016 6.787 1.089 2.36 1.669 4.929 2.46 7.437.79 2.508 1.748 5.182 2.337 7.857.456 2.07 1.537 4.323 1.273 6.48-.149 1.22-1.203 2.184-2.433 2.298-1.38.123-2.399-1.061-3.172-2.034-1.599-2.017-2.732-4.332-3.883-6.621-1.204-2.412-2.32-4.85-3.12-7.428-.799-2.578-1.528-5.042-2.336-7.559-.483-1.508-.896-3.043-.888-4.639.01-1.35-.114-2.85.053-4.183.14-1.175 1.546-1.868 2.592-1.289 1.177.64 2.39 2 3.207 3.034.527.667 1.45-.271.931-.93l.009-.017Z"/><path fill="#060606" d="M72.885 81.61c1.274 0 1.274-1.972 0-1.972s-1.274 1.973 0 1.973Z"/><path fill="#fff" d="M100.496 115.951c-.131-2.245-1.642-6.375-2.213-8.559-.888-3.376-1.353-3.788-2.302-7.147-.712-2.499-1.151-4.647-1.696-7.181l-8.188 12.82"/><path fill="#060606" d="M101.156 115.952c-.141-1.789-.676-3.534-1.195-5.244-.553-1.824-1.037-3.675-1.625-5.49-.536-1.657-1.186-3.271-1.67-4.954-.702-2.43-1.22-4.911-1.748-7.384-.123-.579-.914-.605-1.204-.158-2.732 4.27-5.455 8.55-8.188 12.821-.457.719.686 1.376 1.142.666 2.733-4.271 5.456-8.55 8.189-12.82l-1.204-.158c.5 2.341.993 4.682 1.643 6.989.483 1.727 1.133 3.376 1.696 5.077.562 1.701 1.001 3.446 1.528 5.156.528 1.71 1.186 3.631 1.327 5.499.062.842 1.379.842 1.318 0h-.009Z"/><path fill="#050505" d="M100.311 116.162c-1.124 1.544-2.1 3.271-3.101 4.893-2.934 4.771-5.57 9.717-8.4 14.549-2.424 4.139-4.928 8.234-7.458 12.312-.8 1.289-1.494 2.648-2.329 3.919-.623.956-1.317 1.86-1.923 2.824-.308.5-.738.886-.976 1.421-.237.535-.413.622-1.019.657a10.71 10.71 0 0 1-2.293-.456 72.57 72.57 0 0 0-3.347-.841c-3.585-.842-7.205-1.553-10.772-2.456-2.222-.561-4.146-1.157-6.308-2.017-1.959-.771-3.883-1.815-5.746-2.674 1.204-2.938 2.566-5.902 4.508-8.436 2.073-2.719 3.725-5.613 5.49-8.585 4.06-6.814 8.127-13.628 12.125-20.477 1.072-1.841 2.152-3.77 3.47-5.463 1.037-1.324 2.047-3.99 3.374-4.954.246-.185.184-.474.5-.57.58-.184 3.497 2.052 4.139 2.481 1.572 1.061 3.215 2.044 4.753 3.227 2.548 1.973 5.5 3.341 8.267 4.973 2.768 1.631 4.578 3.691 7.029 5.656"/><path fill="#060606" d="M99.74 115.838c-2.873 3.99-5.236 8.418-7.652 12.689-2.416 4.27-5.096 8.901-7.767 13.285-2.67 4.385-5.06 8.585-7.907 12.663-.263.386-.57.947-.878 1.28-.413.439-.835.307-1.432.193-1.292-.263-2.566-.684-3.849-.991-2.556-.605-5.122-1.14-7.687-1.719-2.565-.578-5.254-1.21-7.81-2.078-2.707-.921-5.22-2.218-7.802-3.429l.298.746c1.116-2.727 2.364-5.428 4.095-7.822a97.3 97.3 0 0 0 4.884-7.454c3.26-5.49 6.537-10.971 9.779-16.478a578.407 578.407 0 0 1 8.733-14.337c.272-.43.553-.868.922-1.228.185-.175.36-.342.545-.526.246-.254-.105-.14.035-.149.545-.044 1.713 1.008 2.144 1.306 1.845 1.281 3.76 2.473 5.57 3.789 2.645 1.92 5.43 3.464 8.259 5.086 2.829 1.622 5.052 3.902 7.564 5.945.65.527 1.59-.394.931-.929-2.284-1.85-4.313-3.999-6.826-5.551s-5.35-2.85-7.828-4.604c-2.135-1.517-4.323-2.938-6.449-4.463-.878-.632-2.943-2.552-4.094-1.675-.307.228-.518.57-.79.841-.37.36-.677.798-.967 1.237-.668 1.008-1.169 2.122-1.845 3.122a151.121 151.121 0 0 0-5.078 8.111 2701.828 2701.828 0 0 1-10.367 17.495c-1.819 3.052-3.567 6.147-5.685 8.997-2.117 2.85-3.514 5.753-4.814 8.927-.097.246.061.632.298.746 2.329 1.087 4.604 2.28 7.02 3.165 2.416.886 4.797 1.509 7.248 2.087 2.619.614 5.254 1.158 7.881 1.763 1.397.324 2.794.658 4.173 1.035.905.245 2.18.719 3.12.386.711-.246.895-.912 1.29-1.474.713-1.008 1.415-2.017 2.118-3.025 1.52-2.21 2.794-4.604 4.209-6.893 2.846-4.612 5.64-9.26 8.31-13.978 2.935-5.182 5.72-10.593 9.199-15.434.492-.692-.65-1.35-1.142-.666l.044.009Z"/><path fill="#00DBFF" d="M30.502 98.685c1.31 14.917 2.82 18.118 6.704 26.387 3.54 7.533 7.784 17.433 15.243 21.932 1.705 1.026 3.813 1.666 5.825 1.736.703.026 1.37.044 2.056.237.518.149.993.403 1.52.526.57.132 1.142.07 1.713.053 1.177-.035 2.346-.071 3.514-.255 1.266-.201 2.548-.999 3.69-1.578 1.292-.658 3.058-1.526 3.98-2.719.334-.429.598-1.026.853-1.508.28-.517.606-1.149.738-1.727.105-.474.035-.991.035-1.482 0-.728.079-1.5.026-2.228-.105-1.499-1.906-3.227-3.066-3.999-1.784-1.183-4.112-.92-6.133-1.262 4.622.193 9.48-.281 13.759-2.096 1.502-.632 4.234-2.017 4.727-3.876.193-.728.29-1.526.263-2.271-.044-1.386-.5-2.605-1.318-3.719-.957-1.306-2.442-1.745-3.936-2.201-1.405-.421-2.504-.5-3.927-.464-.281 0-.8.078-1.107-.036 1.265-.368 2.9-.21 3.936-1.201.65-.623.826-1.342 1.028-2.201.36-1.535.755-3.192-.826-4.095-2.996-1.693-6.95-1.929-10.27-1.991-1.82-.035-3.638-.026-5.465-.096a19.34 19.34 0 0 0-2.671.07c-.931.096-1.599.368-2.522-.07-.922-.439-1.572-1.263-2.082-2.105-1.361-2.227-2.003-4.911-2.495-7.445a56.955 56.955 0 0 1-.87-6.472"/><path fill="#050505" d="M29.844 98.685c.536 6.033 1.115 12.207 3.057 17.977 1.696 5.033 4.191 9.883 6.528 14.644 2.917 5.955 6.457 12.242 12.168 15.943 1.538 1 3.26 1.692 5.078 1.99 1.02.167 2.065.079 3.075.281 1.01.202 1.793.693 2.785.728 1.89.07 4.147.026 5.93-.658 1.626-.622 3.287-1.526 4.771-2.455 1.722-1.079 2.706-2.543 3.48-4.402.413-1 .298-1.938.333-2.999.027-.912.115-1.824-.22-2.693-.588-1.49-1.95-2.814-3.303-3.639-1.853-1.122-4.076-.921-6.14-1.236l-.177 1.289c3.69.14 7.433-.105 11.009-1.105 2.574-.71 5.772-1.842 7.45-4.051 1.801-2.368 1.046-6.446-.993-8.436-1.028-1-2.433-1.474-3.786-1.86a12.894 12.894 0 0 0-2.302-.447c-.888-.079-1.871.132-2.733-.052v1.271c1.318-.342 2.794-.263 3.928-1.122 1.133-.86 1.397-2.184 1.66-3.464.238-1.158.352-2.456-.465-3.429-.888-1.061-2.61-1.561-3.901-1.912-3.4-.929-6.985-.841-10.473-.894-1.836-.026-3.699-.184-5.526.053-.966.122-1.73.201-2.54-.474-.702-.588-1.194-1.429-1.607-2.227-1.968-3.806-2.486-8.56-2.82-12.768-.07-.842-1.388-.842-1.318 0 .272 3.393.747 6.84 1.704 10.119.703 2.412 2.074 6.279 4.964 6.753.66.105 1.3-.053 1.96-.132a18.12 18.12 0 0 1 2.486-.07c1.88.053 3.76.061 5.65.105 3.17.07 6.588.211 9.479 1.666.914.456 1.344 1.009 1.274 2.035-.053.763-.255 1.596-.492 2.324-.641 1.99-2.645 1.745-4.305 2.174-.606.158-.65 1.132 0 1.272 1.283.263 2.627-.026 3.936.219 1.309.246 2.794.658 3.857 1.43 2.38 1.727 2.829 5.945.536 7.874-1.96 1.64-4.657 2.5-7.1 3.061-3.118.719-6.334.885-9.523.763-.729-.027-.922 1.175-.175 1.289 1.686.254 3.505.131 5.113.763 1.344.526 2.811 1.841 3.391 3.174.352.807.193 1.693.184 2.543-.017 1.193-.035 2-.597 3.087-.36.702-.685 1.429-1.248 1.999-.658.667-1.51 1.14-2.328 1.579-1.458.78-3.004 1.78-4.639 2.087-1.818.333-4.085.517-5.824-.123-1.74-.64-3.673-.386-5.474-.894-1.67-.474-3.163-1.333-4.525-2.377-4.99-3.823-8.1-9.672-10.788-15.214-2.1-4.332-4.34-8.717-5.94-13.259-2.038-5.806-2.644-12.023-3.18-18.109-.07-.833-1.397-.842-1.318 0l-.026.009ZM181.951 123.247a16.45 16.45 0 0 0-1.309-1.262c-2.776-2.35-6.08-4.069-9.656-4.911-1.168-.272-2.284-.289-3.452-.395-2.452-.228-4.753-1.043-7.17-1.341-2.416-.299-5.086-.149-7.494-.167-1.88-.009-3.822-.184-5.658.298-2.451.64-2.838 2.92-2.512 5.235.21 1.491 1.379 2.421 2.723 2.947 1.344.526 2.469 1.122 3.866 1.456.914.219 1.924.298 2.811.596 2.381.78 4.472 1.657 6.915 2.157 2.758.57 5.385 1.631 8.091 2.403 4.217 1.201 10.262 2.394 14.312-.097 2.627-1.613.413-4.919-1.467-6.936v.017Z"/><path fill="#060606" d="M182.416 122.782c-2.249-2.359-5.087-4.157-8.109-5.349-3.47-1.377-7.178-1.351-10.78-2.157-3.602-.807-7.16-.711-10.859-.755-2.68-.026-6.8-.552-8.224 2.386-1.028 2.122-.659 5.174 1.309 6.594 1.222.886 2.847 1.43 4.261 1.921 1.661.578 3.418.736 5.087 1.315 3.55 1.228 7.205 2.026 10.772 3.201 3.083 1.017 6.202 1.929 9.444 2.245 1.67.166 3.365.158 5.017-.158 1.432-.272 3.224-.816 4.226-1.938 2.056-2.298-.554-5.595-2.135-7.314-.571-.622-1.502.307-.931.93.861.947 1.73 1.99 2.205 3.201.536 1.368.167 2.341-1.16 3.016-2.354 1.202-5.166 1.21-7.731.895-2.803-.342-5.526-1.14-8.206-2.017-2.935-.965-5.966-1.561-8.891-2.543-1.362-.456-2.715-1.044-4.121-1.368-1.669-.395-3.207-.693-4.797-1.368-1.124-.483-2.477-.868-3.127-2-.563-.964-.545-2.595-.194-3.648.984-2.972 5.799-2.034 8.171-2.043 3.172-.009 6.22-.035 9.339.658 1.643.368 3.268.736 4.955.877 1.687.14 3.356.386 4.999.947 3.198 1.087 6.229 2.946 8.558 5.393.588.614 1.52-.316.931-.93l-.009.009Z"/><path fill="#050505" d="M174.235 131.419c2.627 1.035 5.368 1.167 8.135.711 2.768-.456 5.412-.649 8.101-1.149 1.634-.307 3.224-.614 4.885-.833 1.66-.219 3.47-.938 5.131-1.482.527-.176 1.853-.596 1.968-1.184.21-1.044-1.257-1.771-1.995-2.14-.966-.482-1.941-1.105-2.925-1.526-2.311-.982-5.333.948-7.53 1.605-4.129 1.237-8.416 1.763-12.537 2.999"/><path fill="#060606" d="M174.059 132.06c4.244 1.596 8.443.684 12.792.131 4.349-.552 8.865-1.192 13.038-2.622 1.019-.35 2.873-.675 3.198-1.903.325-1.227-.975-2.174-1.906-2.683-1.476-.789-3.084-1.973-4.806-2.07-1.722-.096-3.418.676-4.99 1.316-4.49 1.824-9.463 2.21-14.093 3.569-.808.237-.465 1.508.352 1.271 3.593-1.061 7.309-1.613 10.938-2.551 1.52-.395 2.926-.947 4.375-1.517 1.45-.57 3.075-1.132 4.613-.439.817.368 1.581.851 2.381 1.263.527.272 1.177.526 1.581.973.624.684-.255.886-.826 1.105-.773.281-1.564.535-2.346.798-1.783.596-3.584.851-5.429 1.166-1.959.342-3.901.72-5.869.974-4.279.552-8.478 1.517-12.651-.053-.791-.298-1.134.974-.352 1.272Z"/><path fill="#050505" d="M160.72 126.089c1.282-.517 4.814-1.859 6.159-2.245 1.599-.456 5.701-1.859 5.701-1.859s-.043-2.604.009-3.709c.106-2.289.211-4.569.211-6.867 0-1.341.088-2.674.114-4.016.009-.631-.026-2.333-.044-3.332l-.017-.781-6.563 2.964-4.305 2.315-.466 7.41-.597 8.401-.202 1.719Z"/><path fill="#060606" d="M160.897 126.72c3.892-1.569 7.899-2.745 11.861-4.104.272-.096.492-.333.483-.631-.096-6.235.413-12.47.273-18.714-.009-.535-.545-.771-.993-.57-2.003.904-3.998 1.807-6.001 2.71-.553.254-1.08.535-1.625.824-1.019.553-2.284 1.009-3.207 1.719-.545.421-.413 1.324-.457 1.956l-.255 4.121a473.929 473.929 0 0 1-.342 5.051c-.167 2.333-.308 4.674-.571 6.998-.097.842 1.221.833 1.318 0 .667-5.814.896-11.698 1.256-17.53l-.325.57c3.567-1.92 7.169-3.613 10.868-5.279l-.993-.57c.149 6.244-.369 12.47-.272 18.714l.483-.632c-3.963 1.351-7.969 2.535-11.861 4.104-.773.316-.439 1.588.352 1.272l.008-.009Z"/><path fill="#00DBFF" d="M143.108 109.629c.878-3.06 1.757-8.532 1.757-8.532s9.014 3.446 12.932 5.033c.949.386 4.604 2.403 4.604 2.403s-.58 5.042-.65 6.936c-.132 3.464-.58 6.919-.905 10.339-1.353.053-2.838-.447-4.191-.64-2.205-.315-4.358-.947-6.572-1.21-3.048-.368-5.965-.894-8.812-2.078-.061-.939.044-1.745.255-2.649.439-1.929.51-3.981 1.046-5.875l.544-3.718-.008-.009Z"/><path fill="#050505" d="M143.741 109.796c.782-2.788 1.291-5.673 1.757-8.532l-.809.456c5.887 2.253 11.852 4.314 17.379 7.375l-.325-.57c-.659 5.744-1.011 11.514-1.556 17.266l.659-.657c-1.616 0-3.25-.474-4.841-.755-1.713-.298-3.4-.736-5.122-.99-3.233-.483-6.378-.93-9.427-2.166l.484.631c-.062-1.64.404-3.218.632-4.832.176-1.219.422-2.411.659-3.613.237-1.201.36-2.42.536-3.622.123-.824-1.151-1.183-1.274-.35-.184 1.219-.307 2.464-.545 3.683a111.68 111.68 0 0 0-.729 4.148c-.228 1.543-.659 3.016-.597 4.586.008.324.202.517.483.631 3.189 1.298 6.475 1.684 9.84 2.228 1.722.28 3.409.719 5.122.999 1.581.263 3.163.737 4.779.728.378 0 .624-.298.659-.657.554-5.753.896-11.523 1.555-17.267.027-.219-.14-.465-.325-.57-5.623-3.113-11.693-5.209-17.685-7.507-.308-.114-.756.132-.809.456-.456 2.859-.966 5.744-1.757 8.533-.228.815 1.046 1.166 1.274.351l-.017.017Z"/><path fill="#00DBFF" d="M138.014 112.654c.914-.395 2.241-5.428 2.979-5.7 2.714-1.018 2.793-.851 5.218-1.386 2.302-.5 3.936.535 5.992 1.754 3.892 2.298 5.93 10.62 1.423 13.452-1.66 1.044-4.507 1.526-6.352 1.535-2.012.008-2.442.499-4.797 0"/><path fill="#050505" d="M138.339 113.224c.808-.438 1.186-1.657 1.511-2.438.246-.587.475-1.184.721-1.771.175-.421.342-1.009.65-1.359.272-.316 1.151-.5 1.66-.658a17.72 17.72 0 0 1 1.784-.439c.782-.149 1.59-.385 2.381-.438 1.01-.07 1.976.228 2.873.675 1.326.658 2.653 1.395 3.575 2.578.826 1.061 1.388 2.324 1.722 3.613.624 2.412.501 5.569-1.757 7.13-1.546 1.07-3.707 1.42-5.552 1.526-1.845.105-3.515.394-5.245.052-.826-.166-1.187 1.105-.352 1.272 1.801.359 3.47.07 5.28.008 1.81-.061 3.787-.403 5.5-1.157 2.961-1.307 4.05-4.42 3.708-7.471-.317-2.833-1.643-5.893-4.112-7.489-1.652-1.07-3.585-2.175-5.632-2.044-1.546.097-3.242.509-4.709.991-.711.228-1.625.395-2.117 1.009-.387.491-.615 1.131-.852 1.71-.299.728-.58 1.455-.888 2.175-.167.385-.439 1.218-.799 1.411-.747.404-.079 1.535.668 1.14l-.018-.026Z"/><path fill="#fff" d="M138.953 108.007c8.54-6.148 14.488 6.2 9.515 12.145-6.695 8.015-16.236-4.884-10.551-11.295l1.036-.859v.009Z"/><path fill="#060606" d="M139.288 108.577c1.353-.965 2.926-1.693 4.621-1.57 1.327.097 2.522.789 3.418 1.736 1.977 2.07 2.732 5.332 2.064 8.086-.667 2.753-3.171 5.568-6.22 5.191-2.741-.342-4.85-2.903-5.754-5.349-.554-1.5-.774-3.157-.387-4.727a6.272 6.272 0 0 1 1.054-2.245c.36-.482.87-.833 1.336-1.219.65-.543-.281-1.464-.932-.929-.483.394-.975.754-1.361 1.254a7.42 7.42 0 0 0-1.23 2.332c-.51 1.596-.457 3.35-.036 4.964.809 3.078 3.119 6.191 6.309 7.059 3.54.956 6.861-1.64 8.135-4.814 1.274-3.175.659-7.016-1.344-9.699-1.054-1.412-2.539-2.534-4.305-2.859-2.17-.386-4.27.412-6.027 1.658-.685.482-.026 1.631.668 1.14l-.009-.009Z"/><path fill="#00DBFF" d="M144.872 100.929s5.06-1.57 7.239-2.578c.993-.456 3.014-1.087 3.014-1.087s3.979.508 5.789 1.175c2.645.982 5.316 1.833 7.925 2.92 1.046.438 4.015 1.912 4.015 1.912l-.501-.035c-.992.675-2.266 1.175-3.347 1.692-1.177.57-2.346 1.158-3.541 1.701-.817.369-2.126 1.351-2.925 1.798l-8.637-4.183-9.023-3.324-.008.009Z"/><path fill="#050505" d="M145.049 101.561a94.286 94.286 0 0 0 5.745-1.956c1.169-.447 2.302-.973 3.497-1.376.264-.088.527-.193.791-.263.211-.053.193-.044.079-.044.299 0 .712.096 1.028.149 3.259.5 6.229 1.587 9.322 2.701 2.416.877 4.717 1.92 7.01 3.06l.334-1.228c-.817-.052-1.23.334-1.959.711-1.08.552-2.196 1.035-3.286 1.561-.966.473-1.985.885-2.925 1.412-.853.473-1.634 1.078-2.478 1.569h.668c-2.548-1.236-5.096-2.464-7.635-3.7-2.056-.991-4.244-1.684-6.387-2.473l-3.796-1.395c-.799-.289-1.142.974-.351 1.272 1.502.552 3.005 1.105 4.516 1.657l3.18 1.167c.325.122.642.236.967.359.096.035.536.211.21.07 1.556.684 3.075 1.491 4.613 2.236.966.465 1.924.93 2.89 1.404.387.192.932.587 1.38.631.694.061 1.59-.824 2.144-1.175.834-.535 1.73-.938 2.626-1.368 1.046-.5 2.083-1.017 3.137-1.5.747-.342 1.74-1.148 2.504-1.105.641.044.914-.938.334-1.227-2.399-1.193-4.806-2.28-7.328-3.192-3.162-1.149-6.193-2.236-9.532-2.736-.747-.114-1.23-.202-1.942.035-1.186.394-2.319.877-3.47 1.342-2.038.815-4.129 1.49-6.22 2.139-.809.254-.466 1.517.351 1.272l-.017-.009Z"/><path fill="#060606" d="M140.226 110.322c-1.432 2.122-1.59 5.691.712 7.269.29.202.729.053.905-.236.193-.325.062-.702-.237-.904-.782-.535-1.09-1.561-1.098-2.516-.009-1.044.272-2.088.861-2.956.202-.298.052-.728-.238-.903-.325-.193-.702-.061-.905.237v.009Z"/><path fill="#fff" d="M186.203 128.395c3.9-1.228 12.994-2.955 15.629-5.805 2.689-2.903-.536-9.603-5.789-8.48-8.435 1.806-24.504 6.726-24.504 6.726l-7.116 8.374 9.339 2.508s8.32-2.034 12.441-3.332v.009Z"/><path fill="#050505" d="M186.379 129.035c2.644-.824 5.35-1.412 8.004-2.21 2.653-.798 5.385-1.587 7.441-3.324 3.857-3.244.404-9.654-4.006-10.137-1.292-.14-2.574.237-3.822.535-1.406.333-2.803.684-4.2 1.044-2.996.78-5.974 1.613-8.952 2.464a670.157 670.157 0 0 0-7.134 2.087c-.791.237-2.039.368-2.689.929-.5.439-.913 1.079-1.344 1.579-.791.938-1.59 1.868-2.381 2.806-1.116 1.315-2.231 2.631-3.347 3.937-.308.369-.22.965.29 1.097 1.449.394 2.908.78 4.357 1.175 1.591.429 3.295 1.122 4.929 1.324.413.052.782-.079 1.195-.176l3.242-.815c2.82-.719 5.64-1.447 8.417-2.324.808-.254.465-1.526-.352-1.271-2.688.841-5.429 1.552-8.153 2.253-1.116.29-2.24.57-3.356.851-.176.044-.685.07-.817.202-.149.149.334.14.114 0-.448-.307-1.362-.369-1.88-.509l-3.084-.833c-1.414-.377-2.838-.763-4.252-1.14l.29 1.096c2.065-2.438 4.138-4.876 6.203-7.305.281-.324.694-.675.896-1.052-.071.14-.413.114-.15.114.15 0 .352-.105.501-.149 1.626-.491 3.251-.974 4.876-1.456 5.263-1.543 10.552-3.06 15.885-4.358 2.433-.596 5.034-1.517 7.143.359 1.52 1.342 2.591 3.99 1.44 5.876-.615.999-1.809 1.605-2.837 2.096-1.406.675-2.9 1.166-4.384 1.622-2.785.859-5.641 1.473-8.426 2.341-.808.255-.466 1.517.352 1.272h-.009Z"/><path fill="#fff" d="M172.214 121.239c.518.456 1.001.912 1.484 1.403.413.421.756.93 1.072 1.421.316.491.562 1.087.659 1.649.053.289.105.578.149.859.036.219.009.43.053.649.123.605-.017 1.219-.035 1.815 0 .14-.062.254-.079.386-.026.175 0 .333-.053.509-.053.192-.079.701-.246.824"/><path fill="#050505" d="M171.748 121.704c1.239 1.105 2.645 2.35 3.014 4.034.184.833.299 1.727.228 2.578-.035.438-.096.85-.149 1.28-.018.149-.035.29-.062.439-.017.087-.14.385-.026.263-.571.622.36 1.552.931.929.492-.535.519-1.596.58-2.28.097-1.105.027-2.139-.167-3.236-.369-2.078-1.897-3.595-3.417-4.945-.633-.562-1.564.368-.932.929v.009Z"/><path fill="#99F1FF" d="M168.63 125.721c.132.122.317.166.457.289.176.149.36.377.457.588.158.333.246.763.272 1.131.027.368 0 .736 0 1.096 0 .193-.07.36-.096.552-.018.15-.114.307-.088.456"/><path fill="#050505" d="M168.167 126.185c.158.132.316.219.492.324.061.044.07.044.017 0 .035.027.062.062.097.097s.061.07.096.105c-.035-.035-.026-.026.018.035.105.176.105.176.176.395.026.088.044.184.07.272 0 .026.044.28.026.166.044.386.027.772.009 1.149v.14c0-.061 0-.052-.009.027-.026.087-.035.184-.052.272-.044.21-.132.412-.115.631.018.342.29.675.659.658.343-.018.686-.29.659-.658 0-.053.009-.079 0-.018.018-.052.035-.105.053-.166.026-.088.035-.176.053-.272.052-.246.088-.482.088-.728a6.988 6.988 0 0 0-.062-1.35c-.061-.413-.184-.842-.404-1.193a2.273 2.273 0 0 0-.466-.544 3.171 3.171 0 0 0-.281-.201c-.044-.027-.088-.044-.132-.071-.026-.008-.131-.087-.044-.017-.263-.219-.676-.281-.931 0-.22.237-.281.701 0 .929l-.017.018ZM74.165 77.683c.29 0 .571-.053.861-.018l-.176-.026a.57.57 0 0 1 .167.035c.026 0 .106.044 0 0-.105-.044-.026-.018-.009 0 0 0 .062.035.062.044 0 0-.132-.115-.07-.053l.079.079c.123.14.246.272.386.394l.176.15c.017.017.053.07.07.079-.008 0-.096-.14-.052-.07.008.017.026.043.035.06.017.027.079.159.035.062-.044-.105 0 .018.017.035l.027.08c.035.096.061.2.079.306l-.026-.175c.008.087.008.166 0 .254l.026-.175a1.4 1.4 0 0 1-.044.184c-.009.026-.018.061-.035.087-.044.123.061-.131 0 0-.07.167-.114.325-.07.509.043.15.158.316.298.395.29.149.756.096.905-.237.123-.28.211-.526.237-.833a1.535 1.535 0 0 0-.096-.632c-.07-.21-.15-.43-.281-.614a2.058 2.058 0 0 0-.378-.403c-.273-.228-.466-.552-.8-.71a1.83 1.83 0 0 0-.808-.167c-.21 0-.422.027-.633.027-.342 0-.676.298-.659.657.018.36.29.658.66.658l.017.017Z"/></svg>